<?xml version="1.0" standalone="no"?>
<!DOCTYPE svg PUBLIC "-//W3C//DTD SVG 20010904//EN"
 "http://www.w3.org/TR/2001/REC-SVG-20010904/DTD/svg10.dtd">
<svg version="1.0" xmlns="http://www.w3.org/2000/svg"
 width="32.000000pt" height="32.000000pt" viewBox="0 0 32.000000 32.000000"
 preserveAspectRatio="xMidYMid meet">

<g transform="translate(0.000000,32.000000) scale(0.100000,-0.100000)"
fill="#000000" stroke="none">
<path d="M93 314 c-42 -10 -48 -30 -48 -155 0 -150 3 -154 115 -154 112 0 115
4 115 155 0 145 -4 151 -96 155 -35 2 -74 1 -86 -1z m55 -61 c2 -9 -8 -13 -32
-13 -26 0 -36 4 -36 16 0 19 61 16 68 -3z m-3 -53 c0 -10 -12 -16 -32 -18 -28
-3 -33 0 -33 18 0 18 5 21 33 18 20 -2 32 -8 32 -18z m43 -32 c7 -7 12 -21 12
-32 0 -12 7 -30 15 -40 8 -11 15 -28 15 -38 0 -24 -31 -23 -37 1 -9 37 -57 37
-66 0 -7 -25 -37 -25 -37 0 0 11 7 26 15 35 8 8 15 25 15 38 0 28 17 48 40 48
9 0 21 -5 28 -12z"/>
</g>
</svg>
